<?xml version="1.0"?>
<svg xmlns="http://www.w3.org/2000/svg" width="512" height="512" viewBox="0 0 128 128"><g><path d="M121.5,4.75H6.5A1.75,1.75,0,0,0,4.75,6.5V91.029a1.749,1.749,0,0,0,1.75,1.75H56.476L53.9,107.943A13.76,13.76,0,0,0,42.346,121.5a1.75,1.75,0,0,0,1.75,1.75H83.9a1.75,1.75,0,0,0,1.75-1.75,13.76,13.76,0,0,0-11.549-13.557L71.524,92.779H121.5a1.749,1.749,0,0,0,1.75-1.75V6.5A1.75,1.75,0,0,0,121.5,4.75Zm-39.5,115H46a10.267,10.267,0,0,1,10.1-8.5H71.9A10.267,10.267,0,0,1,82.005,119.75Zm-11.484-12H57.479l2.549-14.971h7.944ZM119.75,89.279H8.25V8.25h111.5Z"/><path d="M12.5,80.779h103a1.749,1.749,0,0,0,1.75-1.75V12.5a1.75,1.75,0,0,0-1.75-1.75H12.5a1.75,1.75,0,0,0-1.75,1.75V79.029A1.749,1.749,0,0,0,12.5,80.779ZM14.25,14.25h99.5V77.279H14.25Z"/><path d="M50.164,31.2a1.751,1.751,0,0,0-2.475,0L34.363,44.527a1.751,1.751,0,0,0,0,2.475L47.689,60.328a1.75,1.75,0,1,0,2.475-2.474L38.075,45.765,50.164,33.676A1.749,1.749,0,0,0,50.164,31.2Z"/><path d="M80.311,31.2a1.75,1.75,0,1,0-2.475,2.475L89.925,45.765,77.836,57.854a1.75,1.75,0,1,0,2.475,2.474L93.637,47a1.751,1.751,0,0,0,0-2.475Z"/><path d="M74.916,20.618a1.752,1.752,0,0,0-2.3.908L52.176,68.609A1.75,1.75,0,1,0,55.387,70L75.824,22.92A1.75,1.75,0,0,0,74.916,20.618Z"/><path d="M38.75,18.5A1.75,1.75,0,0,0,37,16.75H25.833a1.75,1.75,0,0,0,0,3.5H37A1.75,1.75,0,0,0,38.75,18.5Z"/></g></svg>
