<svg id="Layer_5" enable-background="new 0 0 64 64" height="512" viewBox="0 0 64 64" width="512" xmlns="http://www.w3.org/2000/svg"><path d="m63.667 33-10.667-8v4h-6.061c1.977-2.951 3.061-6.429 3.061-10 0-9.925-8.075-18-18-18s-18 8.075-18 18c0 3.698 1.124 7.138 3.044 10h-12.044v2h13.622c1.462 1.628 3.208 2.989 5.17 4h-22.792v2h27v2h-2v4h-2v2h2v12c0 3.309 2.691 6 6 6s6-2.691 6-6v-12h2v-2h-2v-4h-2v-2h17v4zm-27.667 24c0 2.206-1.794 4-4 4s-4-1.794-4-4v-12h8zm-8-14v-2h8v2zm6-4h-4v-2h2 2zm-2-4c-8.822 0-16-7.178-16-16s7.178-16 16-16 16 7.178 16 16c0 3.635-1.261 7.164-3.54 10h-5.842c3.24-2.151 5.382-5.829 5.382-10 0-6.617-5.383-12-12-12s-12 5.383-12 12 5.383 12 12 12h23v-2l5.333 4-5.333 4v-2zm0-6c-5.514 0-10-4.486-10-10s4.486-10 10-10 10 4.486 10 10-4.486 10-10 10z"/><path d="m30.215 13.27c.576-.179 1.177-.27 1.785-.27v-2c-.81 0-1.61.121-2.378.36z"/><path d="m28.833 13.903-1.058-1.697c-2.363 1.472-3.775 4.012-3.775 6.794 0 2.106.812 4.094 2.285 5.598l1.429-1.399c-1.106-1.128-1.714-2.619-1.714-4.199 0-2.086 1.059-3.992 2.833-5.097z"/><path d="m1 29h2v2h-2z"/><path d="m51.756 15.867 1.976-.312c-.096-.61-.219-1.221-.365-1.815l-1.942.478c.133.539.244 1.094.331 1.649z"/><path d="m52 19-.001.219 2 .025.001-.244c0-.541-.02-1.076-.058-1.607l-1.995.145c.035.483.053.97.053 1.462z"/><path d="m52.85 11.962c-.197-.584-.421-1.165-.666-1.727l-1.834.797c.222.511.425 1.039.605 1.57z"/><path d="m12.575 14.218-1.942-.478c-.146.594-.269 1.205-.365 1.815l1.976.312c.087-.555.198-1.11.331-1.649z"/><path d="m12.001 19.219-.001-.219c0-.492.018-.979.053-1.462l-1.995-.145c-.038.531-.058 1.066-.058 1.607l.001.244z"/><path d="m13.649 11.033-1.834-.797c-.244.562-.468 1.143-.666 1.727l1.895.641c.18-.532.384-1.061.605-1.571z"/></svg>